name pl10_filtered_grf.mot
datacolumns 37
datarows 15
range 0.981500 0.988500
endheader
time	1_ground_force_vx	1_ground_force_vy	1_ground_force_vz	1_ground_force_px	1_ground_force_py	1_ground_force_pz	1_ground_torque_x	1_ground_torque_y	1_ground_torque_z	2_ground_force_vx	2_ground_force_vy	2_ground_force_vz	2_ground_force_px	2_ground_force_py	2_ground_force_pz	2_ground_torque_x	2_ground_torque_y	2_ground_torque_z	3_ground_force_vx	3_ground_force_vy	3_ground_force_vz	3_ground_force_px	3_ground_force_py	3_ground_force_pz	3_ground_torque_x	3_ground_torque_y	3_ground_torque_z	4_ground_force_vx	4_ground_force_vy	4_ground_force_vz	4_ground_force_px	4_ground_force_py	4_ground_force_pz	4_ground_torque_x	4_ground_torque_y	4_ground_torque_z
            0.981500	            4.020941	          286.346374	           49.719160	            0.114026	            0.000000	            0.216510	            0.126337	            8.996918	            1.562161	           23.750121	          364.747938	           33.495629	           -0.127213	            0.000000	            0.216166	           -0.084429	           -1.296639	           -0.119073	           22.527409	            1.761149	            0.486135	            0.375907	            1.311370	            1.914095	           -0.102048	           -0.007978	           -0.002202	          -18.531503	           -0.458025	            1.727339	           -0.265385	            1.310045	            1.925049	            0.019220	            0.000475	           -0.001791
            0.982000	            4.042290	          285.003591	           49.411206	            0.114020	            0.000000	            0.216345	            0.127264	            8.972788	            1.555616	           23.452579	          363.844122	           33.412295	           -0.127039	            0.000000	            0.215951	           -0.083832	           -1.300578	           -0.119434	           22.539679	            1.794027	            0.482453	            0.375912	            1.311370	            1.914096	           -0.102348	           -0.008146	           -0.002191	          -18.518778	           -0.447188	            1.712199	           -0.265378	            1.310045	            1.925050	            0.019336	            0.000467	           -0.001788
            0.982500	            4.059153	          283.666222	           49.104051	            0.114014	            0.000000	            0.216179	            0.128043	            8.948077	            1.548957	           23.150160	          362.957982	           33.327859	           -0.126866	            0.000000	            0.215737	           -0.083230	           -1.304912	           -0.119821	           22.548996	            1.826309	            0.479223	            0.375917	            1.311371	            1.914096	           -0.102661	           -0.008315	           -0.002182	          -18.506656	           -0.436220	            1.697843	           -0.265372	            1.310044	            1.925050	            0.019439	            0.000458	           -0.001783
            0.983000	            4.071477	          282.334937	           48.798069	            0.114010	            0.000000	            0.216013	            0.128672	            8.922734	            1.542183	           22.842878	          362.089737	           33.242497	           -0.126693	            0.000000	            0.215526	           -0.082620	           -1.309633	           -0.120234	           22.555226	            1.857823	            0.476827	            0.375921	            1.311372	            1.914097	           -0.102983	           -0.008482	           -0.002177	          -18.495134	           -0.425200	            1.684551	           -0.265366	            1.310044	            1.925050	            0.019527	            0.000449	           -0.001779
            0.983500	            4.079233	          281.010421	           48.493661	            0.114006	            0.000000	            0.215847	            0.129147	            8.896713	            1.535296	           22.530791	          361.239525	           33.156379	           -0.126522	            0.000000	            0.215315	           -0.082001	           -1.314730	           -0.120673	           22.558275	            1.888399	            0.474881	            0.375926	            1.311374	            1.914097	           -0.103312	           -0.008648	           -0.002175	          -18.484235	           -0.414225	            1.672272	           -0.265360	            1.310044	            1.925051	            0.019599	            0.000439	           -0.001773
            0.984000	            4.082405	          279.693368	           48.191254	            0.114005	            0.000000	            0.215682	            0.129466	            8.869974	            1.528299	           22.214003	          360.407401	           33.069663	           -0.126351	            0.000000	            0.215107	           -0.081371	           -1.320192	           -0.121136	           22.558070	            1.917873	            0.473379	            0.375930	            1.311375	            1.914098	           -0.103644	           -0.008812	           -0.002175	          -18.473958	           -0.403390	            1.661102	           -0.265353	            1.310043	            1.925051	            0.019654	            0.000429	           -0.001767
            0.984500	            4.081001	          278.384471	           47.891299	            0.114005	            0.000000	            0.215517	            0.129627	            8.842484	            1.521199	           21.892667	          359.593332	           32.982495	           -0.126181	            0.000000	            0.214900	           -0.080729	           -1.326003	           -0.121623	           22.554564	            1.946083	            0.472312	            0.375934	            1.311376	            1.914098	           -0.103978	           -0.008972	           -0.002177	          -18.464300	           -0.392795	            1.651122	           -0.265347	            1.310043	            1.925051	            0.019691	            0.000419	           -0.001761
            0.985000	            4.075044	          277.084414	           47.594261	            0.114007	            0.000000	            0.215354	            0.129630	            8.814218	            1.514001	           21.566984	          358.797196	           32.895008	           -0.126012	            0.000000	            0.214695	           -0.080074	           -1.332145	           -0.122133	           22.547742	            1.972877	            0.471665	            0.375938	            1.311377	            1.914099	           -0.104311	           -0.009127	           -0.002182	          -18.455251	           -0.382541	            1.642401	           -0.265341	            1.310042	            1.925052	            0.019708	            0.000409	           -0.001754
            0.985500	            4.064578	          275.793869	           47.300623	            0.114012	            0.000000	            0.215194	            0.129473	            8.785157	            1.506717	           21.237205	          358.018781	           32.807315	           -0.125845	            0.000000	            0.214492	           -0.079404	           -1.338599	           -0.122664	           22.537622	            1.998109	            0.471381	            0.375942	            1.311379	            1.914100	           -0.104639	           -0.009277	           -0.002189	          -18.446782	           -0.372721	            1.635165	           -0.265335	            1.310042	            1.925052	            0.019704	            0.000398	           -0.001747
            0.986000	            4.049665	          274.513481	           47.010874	            0.114018	            0.000000	            0.215035	            0.129159	            8.755288	            1.499357	           20.903631	          357.257783	           32.719514	           -0.125680	            0.000000	            0.214292	           -0.078718	           -1.345342	           -0.123213	           22.524251	            2.021645	            0.471477	            0.375946	            1.311381	            1.914100	           -0.104962	           -0.009421	           -0.002197	          -18.438888	           -0.363441	            1.629280	           -0.265329	            1.310041	            1.925052	            0.019680	            0.000388	           -0.001739
            0.986500	            4.030381	          273.243866	           46.725507	            0.114027	            0.000000	            0.214880	            0.128689	            8.724607	            1.491934	           20.566610	          356.513810	           32.631683	           -0.125516	            0.000000	            0.214093	           -0.078014	           -1.352349	           -0.123780	           22.507715	            2.043360	            0.471929	            0.375950	            1.311382	            1.914101	           -0.105277	           -0.009558	           -0.002207	          -18.431550	           -0.354798	            1.624770	           -0.265323	            1.310041	            1.925052	            0.019633	            0.000378	           -0.001731
            0.987000	            4.006825	          271.985604	           46.445014	            0.114038	            0.000000	            0.214727	            0.128065	            8.693116	            1.484461	           20.226539	          355.786381	           32.543879	           -0.125354	            0.000000	            0.213897	           -0.077293	           -1.359594	           -0.124362	           22.488129	            2.063141	            0.472706	            0.375954	            1.311384	            1.914102	           -0.105582	           -0.009686	           -0.002219	          -18.424742	           -0.346884	            1.621645	           -0.265317	            1.310040	            1.925052	            0.019563	            0.000368	           -0.001722
            0.987500	            3.979106	          270.739233	           46.169881	            0.114051	            0.000000	            0.214577	            0.127290	            8.660823	            1.476953	           19.883860	          355.074929	           32.456142	           -0.125195	            0.000000	            0.213704	           -0.076553	           -1.367047	           -0.124957	           22.465645	            2.080891	            0.473775	            0.375958	            1.311386	            1.914102	           -0.105874	           -0.009807	           -0.002233	          -18.418439	           -0.339785	            1.619902	           -0.265311	            1.310040	            1.925052	            0.019471	            0.000359	           -0.001712
            0.988000	            3.947352	          269.505245	           45.900580	            0.114066	            0.000000	            0.214431	            0.126368	            8.627743	            1.469427	           19.539059	          354.378809	           32.368489	           -0.125037	            0.000000	            0.213512	           -0.075794	           -1.374678	           -0.125561	           22.440455	            2.096523	            0.474608	            0.375962	            1.311388	            1.914103	           -0.106154	           -0.009918	           -0.002245	          -18.412603	           -0.333572	            1.619663	           -0.265306	            1.310039	            1.925051	            0.019355	            0.000351	           -0.001703
            0.988500	            3.911704	          268.284083	           45.637568	            0.114083	            0.000000	            0.214288	            0.125303	            8.593898	            1.461900	           19.192659	          353.697302	           32.280923	           -0.124882	            0.000000	            0.213323	           -0.075016	           -1.382454	           -0.126173	           22.412762	            2.109966	            0.475659	            0.375966	            1.311390	            1.914103	           -0.106418	           -0.010018	           -0.002258	          -18.407218	           -0.328326	            1.620765	           -0.265300	            1.310039	            1.925051	            0.019215	            0.000343	           -0.001692
